<svg width="24" height="24" viewBox="0 0 24 24" fill="none" xmlns="http://www.w3.org/2000/svg">
<path d="M12 3.25C14.3472 3.25 16.25 5.15279 16.25 7.5C16.25 9.84721 14.3472 11.75 12 11.75C9.65279 11.75 7.75 9.84721 7.75 7.5C7.75 5.15279 9.65279 3.25 12 3.25Z" fill="currentColor" stroke="currentColor" stroke-width="1.5"/>
<path opacity="0.4" d="M17 4.25C18.7949 4.25 20.25 5.70507 20.25 7.5C20.25 9.29493 18.7949 10.75 17 10.75C15.2051 10.75 13.75 9.29493 13.75 7.5C13.75 5.70507 15.2051 4.25 17 4.25Z" fill="currentColor" stroke="currentColor" stroke-width="1.5"/>
<path opacity="0.4" d="M7 4.25C5.20507 4.25 3.75 5.70507 3.75 7.5C3.75 9.29493 5.20507 10.75 7 10.75C8.79493 10.75 10.25 9.29493 10.25 7.5C10.25 5.70507 8.79493 4.25 7 4.25Z" fill="currentColor" stroke="currentColor" stroke-width="1.5"/>
<path d="M12 12.25C13.7655 12.25 15.4007 12.6658 16.6201 13.377C17.8212 14.0776 18.75 15.156 18.75 16.5C18.75 17.844 17.8212 18.9224 16.6201 19.623C15.4007 20.3342 13.7655 20.75 12 20.75C10.2345 20.75 8.59932 20.3342 7.37988 19.623C6.17881 18.9224 5.25 17.844 5.25 16.5C5.25 15.156 6.17881 14.0776 7.37988 13.377C8.59932 12.6658 10.2345 12.25 12 12.25Z" fill="currentColor" stroke="currentColor" stroke-width="1.5"/>
<path opacity="0.4" d="M18 13.25C19.2226 13.25 20.3648 13.5587 21.2256 14.0967C22.0758 14.6281 22.75 15.4577 22.75 16.5C22.75 17.5423 22.0758 18.3719 21.2256 18.9033C20.3648 19.4413 19.2226 19.75 18 19.75C16.7774 19.75 15.6352 19.4413 14.7744 18.9033C13.9242 18.3719 13.25 17.5423 13.25 16.5C13.25 15.4577 13.9242 14.6281 14.7744 14.0967C15.6352 13.5587 16.7774 13.25 18 13.25Z" fill="currentColor" stroke="currentColor" stroke-width="1.5"/>
<path opacity="0.4" d="M6 13.25C4.77737 13.25 3.6352 13.5587 2.77441 14.0967C1.9242 14.6281 1.25 15.4577 1.25 16.5C1.25 17.5423 1.9242 18.3719 2.77441 18.9033C3.6352 19.4413 4.77737 19.75 6 19.75C7.22263 19.75 8.3648 19.4413 9.22559 18.9033C10.0758 18.3719 10.75 17.5423 10.75 16.5C10.75 15.4577 10.0758 14.6281 9.22559 14.0967C8.3648 13.5587 7.22263 13.25 6 13.25Z" fill="currentColor" stroke="currentColor" stroke-width="1.5"/>
</svg>
