<svg width="18" height="18" viewBox="0 0 18 18" fill="none" xmlns="http://www.w3.org/2000/svg">
<path fill-rule="evenodd" clip-rule="evenodd" d="M12.1422 3.1422C12.0965 3.18788 12 3.32795 12 3.75V4.5H13.5V3.75C13.5 3.32795 13.4035 3.18788 13.3578 3.1422C13.3121 3.09653 13.1721 3 12.75 3C12.3279 3 12.1879 3.09653 12.1422 3.1422ZM15 3.75C15 3.13705 14.864 2.52712 14.4185 2.08154C13.9729 1.63597 13.3629 1.5 12.75 1.5C12.1371 1.5 11.5271 1.63597 11.0815 2.08154C10.636 2.52712 10.5 3.13705 10.5 3.75V7.5C10.5 7.91421 10.8358 8.25 11.25 8.25C11.6642 8.25 12 7.91421 12 7.5V6H13.5V7.5C13.5 7.91421 13.8358 8.25 14.25 8.25C14.6642 8.25 15 7.91421 15 7.5V3.75ZM5.25 3.75C5.66421 3.75 6 4.08579 6 4.5V11.6893L6.96967 10.7197C7.26256 10.4268 7.73744 10.4268 8.03033 10.7197C8.32322 11.0126 8.32322 11.4874 8.03033 11.7803L5.78033 14.0303C5.48744 14.3232 5.01256 14.3232 4.71967 14.0303L2.46967 11.7803C2.17678 11.4874 2.17678 11.0126 2.46967 10.7197C2.76256 10.4268 3.23744 10.4268 3.53033 10.7197L4.5 11.6893V4.5C4.5 4.08579 4.83579 3.75 5.25 3.75ZM10.5 10.5C10.5 10.0858 10.8358 9.75 11.25 9.75H14.25C14.5174 9.75 14.7645 9.89232 14.8987 10.1236C15.0329 10.3548 15.0338 10.64 14.9012 10.8721L12.5424 15H14.25C14.6642 15 15 15.3358 15 15.75C15 16.1642 14.6642 16.5 14.25 16.5H11.25C10.9826 16.5 10.7355 16.3577 10.6013 16.1264C10.4671 15.8952 10.4662 15.61 10.5988 15.3779L12.9576 11.25H11.25C10.8358 11.25 10.5 10.9142 10.5 10.5Z" fill="#495057"/>
<path fill-rule="evenodd" clip-rule="evenodd" d="M12.1422 3.1422C12.0965 3.18788 12 3.32795 12 3.75V4.5H13.5V3.75C13.5 3.32795 13.4035 3.18788 13.3578 3.1422C13.3121 3.09653 13.1721 3 12.75 3C12.3279 3 12.1879 3.09653 12.1422 3.1422ZM15 3.75C15 3.13705 14.864 2.52712 14.4185 2.08154C13.9729 1.63597 13.3629 1.5 12.75 1.5C12.1371 1.5 11.5271 1.63597 11.0815 2.08154C10.636 2.52712 10.5 3.13705 10.5 3.75V7.5C10.5 7.91421 10.8358 8.25 11.25 8.25C11.6642 8.25 12 7.91421 12 7.5V6H13.5V7.5C13.5 7.91421 13.8358 8.25 14.25 8.25C14.6642 8.25 15 7.91421 15 7.5V3.75ZM5.25 3.75C5.66421 3.75 6 4.08579 6 4.5V11.6893L6.96967 10.7197C7.26256 10.4268 7.73744 10.4268 8.03033 10.7197C8.32322 11.0126 8.32322 11.4874 8.03033 11.7803L5.78033 14.0303C5.48744 14.3232 5.01256 14.3232 4.71967 14.0303L2.46967 11.7803C2.17678 11.4874 2.17678 11.0126 2.46967 10.7197C2.76256 10.4268 3.23744 10.4268 3.53033 10.7197L4.5 11.6893V4.5C4.5 4.08579 4.83579 3.75 5.25 3.75ZM10.5 10.5C10.5 10.0858 10.8358 9.75 11.25 9.75H14.25C14.5174 9.75 14.7645 9.89232 14.8987 10.1236C15.0329 10.3548 15.0338 10.64 14.9012 10.8721L12.5424 15H14.25C14.6642 15 15 15.3358 15 15.75C15 16.1642 14.6642 16.5 14.25 16.5H11.25C10.9826 16.5 10.7355 16.3577 10.6013 16.1264C10.4671 15.8952 10.4662 15.61 10.5988 15.3779L12.9576 11.25H11.25C10.8358 11.25 10.5 10.9142 10.5 10.5Z" fill="#495057"/>
</svg>
