<svg width="16" height="16" viewBox="0 0 16 16" fill="none" xmlns="http://www.w3.org/2000/svg">
<path fill-rule="evenodd" clip-rule="evenodd" d="M14.6668 8.00016C14.6668 11.6822 11.6822 14.6668 8.00016 14.6668C4.31816 14.6668 1.3335 11.6822 1.3335 8.00016C1.3335 4.31816 4.31816 1.3335 8.00016 1.3335C11.6822 1.3335 14.6668 4.31816 14.6668 8.00016ZM8.00016 11.8335C8.13277 11.8335 8.25995 11.7808 8.35372 11.687C8.44748 11.5933 8.50016 11.4661 8.50016 11.3335V7.3335C8.50016 7.20089 8.44748 7.07371 8.35372 6.97994C8.25995 6.88618 8.13277 6.8335 8.00016 6.8335C7.86755 6.8335 7.74038 6.88618 7.64661 6.97994C7.55284 7.07371 7.50016 7.20089 7.50016 7.3335V11.3335C7.50016 11.6095 7.72416 11.8335 8.00016 11.8335ZM8.00016 4.66683C8.17697 4.66683 8.34654 4.73707 8.47157 4.86209C8.59659 4.98712 8.66683 5.15669 8.66683 5.3335C8.66683 5.51031 8.59659 5.67988 8.47157 5.8049C8.34654 5.92992 8.17697 6.00016 8.00016 6.00016C7.82335 6.00016 7.65378 5.92992 7.52876 5.8049C7.40373 5.67988 7.3335 5.51031 7.3335 5.3335C7.3335 5.15669 7.40373 4.98712 7.52876 4.86209C7.65378 4.73707 7.82335 4.66683 8.00016 4.66683Z" fill="#FA5252"/>
</svg>
