<svg width="20" height="20" viewBox="0 0 20 20" fill="none" xmlns="http://www.w3.org/2000/svg">
<path fill-rule="evenodd" clip-rule="evenodd" d="M6.18733 3.52922C7.62762 2.69715 9.30154 2.36171 10.9512 2.57457C12.6009 2.78743 14.1349 3.53679 15.3168 4.70721C16.4987 5.87763 17.263 7.40418 17.4919 9.05172C17.5553 9.50757 17.2371 9.92847 16.7812 9.99182C16.3254 10.0552 15.9045 9.73699 15.8411 9.28113C15.6625 7.99569 15.0662 6.80465 14.144 5.89146C13.2219 4.97828 12.0251 4.39361 10.7379 4.22753C9.45082 4.06145 8.1448 4.32317 7.02105 4.97237C6.28166 5.39953 5.64816 5.97885 5.15915 6.66642H6.66652C7.12676 6.66642 7.49986 7.03952 7.49986 7.49976C7.49986 7.95999 7.12676 8.33309 6.66652 8.33309H3.7685C3.75587 8.33338 3.74322 8.33338 3.73055 8.33309H3.33319C2.87295 8.33309 2.49986 7.95999 2.49986 7.49976V4.16642C2.49986 3.70619 2.87295 3.33309 3.33319 3.33309C3.79343 3.33309 4.16652 3.70619 4.16652 4.16642V5.22714C4.73199 4.55182 5.41453 3.97568 6.18733 3.52922ZM3.21848 10.0077C3.67434 9.94434 4.09524 10.2625 4.15859 10.7184C4.33723 12.0038 4.93355 13.1949 5.8557 14.1081C6.77784 15.0212 7.97466 15.6059 9.26178 15.772C10.5489 15.9381 11.8549 15.6763 12.9787 15.0271C13.7181 14.6 14.3516 14.0207 14.8406 13.3331H13.3332C12.873 13.3331 12.4999 12.96 12.4999 12.4998C12.4999 12.0395 12.873 11.6664 13.3332 11.6664H16.2312C16.2438 11.6661 16.2565 11.6661 16.2692 11.6664H16.6665C17.1268 11.6664 17.4999 12.0395 17.4999 12.4998V15.8331C17.4999 16.2933 17.1268 16.6664 16.6665 16.6664C16.2063 16.6664 15.8332 16.2933 15.8332 15.8331V14.7724C15.2677 15.4477 14.5852 16.0238 13.8124 16.4703C12.3721 17.3024 10.6982 17.6378 9.04849 17.4249C7.3988 17.2121 5.86486 16.4627 4.68295 15.2923C3.50105 14.1219 2.73675 12.5953 2.50779 10.9478C2.44444 10.4919 2.76263 10.071 3.21848 10.0077Z" fill="#12B886"/>
</svg>
