<svg width="20" height="20" viewBox="0 0 20 20" fill="none" xmlns="http://www.w3.org/2000/svg">
<rect width="20" height="20" rx="10" fill="#FD7E14"/>
<path d="M10.9613 3.11552C10.8996 3.06428 10.8266 3.0286 10.7482 3.01151C10.6699 2.99441 10.5887 2.99639 10.5113 3.01728C10.4339 3.03818 10.3627 3.07737 10.3036 3.13156C10.2445 3.18575 10.1993 3.25334 10.1719 3.32865L8.79688 7.10427L7.28687 5.64115C7.23616 5.59196 7.17561 5.55408 7.10919 5.53C7.04278 5.50592 6.97201 5.49619 6.90157 5.50145C6.83112 5.5067 6.76258 5.52683 6.70047 5.5605C6.63837 5.59416 6.5841 5.64061 6.54125 5.69677C5.1875 7.47052 4.5 9.2549 4.5 10.9999C4.5 12.4586 5.07946 13.8575 6.11091 14.889C7.14236 15.9204 8.54131 16.4999 10 16.4999C11.4587 16.4999 12.8576 15.9204 13.8891 14.889C14.9205 13.8575 15.5 12.4586 15.5 10.9999C15.5 7.28427 12.3256 4.2499 10.9613 3.11552ZM13.4931 11.5836C13.3635 12.3078 13.0151 12.9749 12.4948 13.4951C11.9745 14.0153 11.3073 14.3635 10.5831 14.493C10.5557 14.4977 10.5279 14.5 10.5 14.4999C10.3746 14.4999 10.2538 14.4527 10.1615 14.3678C10.0692 14.2828 10.0122 14.1663 10.0018 14.0413C9.99146 13.9163 10.0284 13.792 10.1054 13.693C10.1824 13.594 10.2938 13.5275 10.4175 13.5068C11.4531 13.3324 12.3319 12.4537 12.5075 11.4162C12.5297 11.2854 12.603 11.1688 12.7112 11.092C12.8193 11.0152 12.9536 10.9846 13.0844 11.0068C13.2152 11.029 13.3318 11.1022 13.4085 11.2104C13.4853 11.3186 13.516 11.4529 13.4937 11.5836H13.4931Z" fill="white"/>
</svg>
