<svg width="16" height="16" viewBox="0 0 16 16" fill="none" xmlns="http://www.w3.org/2000/svg">
<path fill-rule="evenodd" clip-rule="evenodd" d="M14.6666 7.99967C14.6666 11.6816 11.6818 14.6663 7.99992 14.6663C4.31802 14.6663 1.33325 11.6816 1.33325 7.99967C1.33325 4.31778 4.31802 1.33301 7.99992 1.33301C11.6818 1.33301 14.6666 4.31778 14.6666 7.99967ZM7.99992 11.833C8.27606 11.833 8.49992 11.6092 8.49992 11.333V7.33301C8.49992 7.05687 8.27606 6.83301 7.99992 6.83301C7.72378 6.83301 7.49992 7.05687 7.49992 7.33301V11.333C7.49992 11.6092 7.72378 11.833 7.99992 11.833ZM7.99992 4.66634C8.36811 4.66634 8.66659 4.96482 8.66659 5.33301C8.66659 5.7012 8.36811 5.99967 7.99992 5.99967C7.63173 5.99967 7.33325 5.7012 7.33325 5.33301C7.33325 4.96482 7.63173 4.66634 7.99992 4.66634Z" fill="#007AFF"/>
</svg>
