<svg width="20" height="20" viewBox="0 0 20 20" fill="none" xmlns="http://www.w3.org/2000/svg">
<path fill-rule="evenodd" clip-rule="evenodd" d="M18.3334 10.0003C18.3334 14.6027 14.6025 18.3337 10.0001 18.3337C5.39771 18.3337 1.66675 14.6027 1.66675 10.0003C1.66675 5.39795 5.39771 1.66699 10.0001 1.66699C14.6025 1.66699 18.3334 5.39795 18.3334 10.0003ZM7.47477 7.47503C7.71885 7.23096 8.11458 7.23096 8.35865 7.47503L10.0001 9.11643L11.6414 7.47505C11.8855 7.23097 12.2812 7.23097 12.5253 7.47505C12.7694 7.71913 12.7694 8.11486 12.5253 8.35893L10.8839 10.0003L12.5253 11.6417C12.7694 11.8858 12.7694 12.2815 12.5253 12.5256C12.2812 12.7696 11.8855 12.7696 11.6414 12.5256L10.0001 10.8842L8.35867 12.5256C8.1146 12.7697 7.71887 12.7697 7.47479 12.5256C7.23071 12.2815 7.23071 11.8858 7.47479 11.6417L9.11617 10.0003L7.47477 8.35892C7.23069 8.11484 7.23069 7.71911 7.47477 7.47503Z" fill="#868E96" stroke="white" stroke-linecap="round"/>
</svg>
