<svg width="20" height="20" viewBox="0 0 20 20" fill="none" xmlns="http://www.w3.org/2000/svg">
<path fill-rule="evenodd" clip-rule="evenodd" d="M10.0001 3.33317C8.61937 3.33317 7.50008 4.45246 7.50008 5.83317C7.50008 7.21388 8.61937 8.33317 10.0001 8.33317C11.3808 8.33317 12.5001 7.21388 12.5001 5.83317C12.5001 4.45246 11.3808 3.33317 10.0001 3.33317ZM5.83341 5.83317C5.83341 3.53198 7.6989 1.6665 10.0001 1.6665C12.3013 1.6665 14.1667 3.53198 14.1667 5.83317C14.1667 8.13436 12.3013 9.99984 10.0001 9.99984C7.6989 9.99984 5.83341 8.13436 5.83341 5.83317ZM8.33342 13.3332C7.67037 13.3332 7.03449 13.5966 6.56565 14.0654C6.09681 14.5342 5.83341 15.1701 5.83341 15.8332V17.4998C5.83341 17.9601 5.46032 18.3332 5.00008 18.3332C4.53984 18.3332 4.16675 17.9601 4.16675 17.4998V15.8332C4.16675 14.7281 4.60573 13.6683 5.38714 12.8869C6.16854 12.1055 7.22835 11.6665 8.33342 11.6665H9.16675C9.62699 11.6665 10.0001 12.0396 10.0001 12.4998C10.0001 12.9601 9.62699 13.3332 9.16675 13.3332H8.33342ZM13.7501 13.3332C13.0597 13.3332 12.5001 13.8928 12.5001 14.5832C12.5001 15.2735 13.0597 15.8332 13.7501 15.8332C14.4404 15.8332 15.0001 15.2735 15.0001 14.5832C15.0001 13.8928 14.4404 13.3332 13.7501 13.3332ZM10.8334 14.5832C10.8334 12.9723 12.1393 11.6665 13.7501 11.6665C15.3609 11.6665 16.6667 12.9723 16.6667 14.5832C16.6667 15.0855 16.5398 15.5581 16.3162 15.9708L18.0893 17.7439C18.4148 18.0694 18.4148 18.597 18.0893 18.9224C17.7639 19.2479 17.2363 19.2479 16.9108 18.9224L15.1377 17.1493C14.725 17.3729 14.2524 17.4998 13.7501 17.4998C12.1393 17.4998 10.8334 16.194 10.8334 14.5832Z" fill="#228BE6"/>
</svg>
