<svg width="20" height="20" viewBox="0 0 20 20" fill="none" xmlns="http://www.w3.org/2000/svg">
<path fill-rule="evenodd" clip-rule="evenodd" d="M7.87887 3.12941C9.07933 2.67924 9.53533 2.51807 10.0002 2.51807C10.4651 2.51807 10.9212 2.67924 12.1216 3.12941L12.8456 3.40089C14.2836 3.94016 14.825 4.15611 15.2032 4.51692C15.4691 4.77062 15.6806 5.07577 15.8247 5.41382C16.0298 5.89457 16.0419 6.47735 16.0419 8.0132V9.13917C16.0419 10.4578 16.0394 11.0374 15.9416 11.5678C15.703 12.8609 15.0489 14.0409 14.0788 14.9286C13.681 15.2926 13.1907 15.6019 12.0726 16.3008C11.4347 16.6995 11.1894 16.8492 10.9472 16.9396C10.3364 17.1675 9.664 17.1675 9.05325 16.9396C8.811 16.8492 8.56583 16.6995 7.92785 16.3008C6.80966 15.6019 6.31943 15.2926 5.92163 14.9286C4.95149 14.0409 4.29747 12.8609 4.05886 11.5678C3.96101 11.0374 3.95856 10.4578 3.95856 9.13917V8.0132C3.95856 6.47735 3.97064 5.89457 4.1757 5.41382C4.31989 5.07577 4.53137 4.77062 4.79726 4.51692C5.17541 4.15611 5.71683 3.94016 7.15489 3.40089L7.87887 3.12941ZM7.55012 1.91767L7.43997 1.95899L6.71599 2.23048L6.57952 2.28162C5.32692 2.75092 4.52087 3.05291 3.93436 3.61254C3.54574 3.98333 3.23666 4.42933 3.02592 4.9234C2.70787 5.66907 2.70812 6.52982 2.70852 7.86745L2.70856 8.0132V9.13917L2.70855 9.21209C2.70851 10.4377 2.70848 11.1381 2.82961 11.7945C3.1176 13.3553 3.90692 14.7794 5.07778 15.8508C5.57024 16.3014 6.16424 16.6727 7.20351 17.3222L7.26535 17.3608L7.32555 17.3984C7.88288 17.7468 8.24068 17.9706 8.61617 18.1107C9.50883 18.4438 10.4917 18.4438 11.3842 18.1107C11.7597 17.9706 12.1176 17.7468 12.6749 17.3984L12.7351 17.3608L12.7969 17.3222C13.8362 16.6728 14.4302 16.3014 14.9227 15.8508C16.0935 14.7794 16.8828 13.3553 17.1708 11.7945C17.292 11.1381 17.2919 10.4377 17.2919 9.21217V9.13917V8.0132V7.86745C17.2923 6.52982 17.2926 5.66907 16.9745 4.9234C16.7638 4.42933 16.4547 3.98333 16.0661 3.61254C15.4796 3.05291 14.6735 2.75092 13.4209 2.28162L13.2844 2.23048L12.5605 1.95899L12.4503 1.91767C11.3989 1.52308 10.7194 1.26807 10.0002 1.26807C9.281 1.26807 8.6015 1.52308 7.55012 1.91767ZM13.3588 8.35834C13.6029 8.11429 13.6029 7.71856 13.3588 7.47448C13.1147 7.23041 12.719 7.23041 12.4749 7.47448L9.16692 10.7825L7.94216 9.55784C7.69807 9.31376 7.30235 9.31376 7.05827 9.55784C6.81419 9.80192 6.81419 10.1976 7.05827 10.4417L8.72492 12.1083C8.969 12.3524 9.36475 12.3524 9.60883 12.1083L13.3588 8.35834Z" fill="#E4B653"/>
</svg>
