<svg width="20" height="20" viewBox="0 0 20 20" fill="none" xmlns="http://www.w3.org/2000/svg">
<path fill-rule="evenodd" clip-rule="evenodd" d="M9.99224 2.53324C11.8164 2.52778 13.58 3.18733 14.9529 4.38841C16.3258 5.58949 17.214 7.24977 17.4511 9.05845C17.5109 9.51479 17.1894 9.93321 16.7331 9.99303C16.2768 10.0528 15.8583 9.7314 15.7985 9.27507C15.6141 7.86831 14.9234 6.57699 13.8555 5.64281C12.7877 4.70863 11.416 4.19565 9.99722 4.1999C8.57845 4.20414 7.20985 4.72531 6.14762 5.66586C5.08539 6.6064 4.40236 7.90184 4.22638 9.30967C4.0504 10.7175 4.39354 12.1412 5.19156 13.3143C5.98959 14.4874 7.18779 15.3294 8.56187 15.6827C9.93595 16.0361 11.3917 15.8765 12.6566 15.234C13.5331 14.7887 14.2762 14.1328 14.8247 13.3334H12.4581C11.9979 13.3334 11.6248 12.9603 11.6248 12.5001C11.6248 12.0399 11.9979 11.6668 12.4581 11.6668H16.1892C16.202 11.6665 16.2147 11.6665 16.2275 11.6668H16.6248C17.085 11.6668 17.4581 12.0399 17.4581 12.5001V16.6668C17.4581 17.127 17.085 17.5001 16.6248 17.5001C16.1646 17.5001 15.7915 17.127 15.7915 16.6668V14.8164C15.1419 15.6008 14.3341 16.2512 13.4115 16.7199C11.7851 17.5461 9.91346 17.7512 8.14678 17.2969C6.38011 16.8426 4.83957 15.76 3.81354 14.2517C2.7875 12.7435 2.34632 10.913 2.57258 9.10294C2.79884 7.29288 3.67703 5.62732 5.04275 4.41804C6.40847 3.20877 8.1681 2.53869 9.99224 2.53324Z" fill="#7950F2"/>
</svg>
