<svg width="16" height="16" viewBox="0 0 16 16" fill="none" xmlns="http://www.w3.org/2000/svg">
<path d="M3.8335 4.6665C3.55735 4.6665 3.3335 4.89036 3.3335 5.1665C3.3335 5.44265 3.55735 5.6665 3.8335 5.6665H6.50016C6.77631 5.6665 7.00016 5.44265 7.00016 5.1665C7.00016 4.89036 6.77631 4.6665 6.50016 4.6665H3.8335Z" fill="#F59F00"/>
<path fill-rule="evenodd" clip-rule="evenodd" d="M14.1258 5.33601C14.0843 5.33346 14.0391 5.33348 13.9922 5.3335L13.9805 5.3335H12.1434C10.6292 5.3335 9.3335 6.49087 9.3335 8.00016C9.3335 9.50945 10.6292 10.6668 12.1434 10.6668H13.9805L13.9922 10.6668C14.0391 10.6668 14.0843 10.6669 14.1258 10.6643C14.7409 10.6266 15.2848 10.1592 15.3305 9.50644C15.3335 9.46364 15.3335 9.4175 15.3335 9.37473L15.3335 9.36312V6.6372L15.3335 6.6256C15.3335 6.58283 15.3335 6.53669 15.3305 6.49388C15.2848 5.84109 14.7409 5.37372 14.1258 5.33601ZM11.9806 8.71127C12.3704 8.71127 12.6864 8.39289 12.6864 8.00016C12.6864 7.60742 12.3704 7.28905 11.9806 7.28905C11.5907 7.28905 11.2747 7.60742 11.2747 8.00016C11.2747 8.39289 11.5907 8.71127 11.9806 8.71127Z" fill="#F59F00"/>
<path opacity="0.5" d="M14.0931 5.33435C14.0931 4.54727 14.0645 3.70298 13.5613 3.09772C13.5128 3.03929 13.4611 2.98256 13.406 2.9275C12.9071 2.42859 12.2745 2.20718 11.4928 2.10209C10.7334 1.99998 9.76296 1.99999 8.53779 2H7.12922C5.90405 1.99999 4.93362 1.99998 4.17415 2.10209C3.39253 2.20718 2.7599 2.42859 2.26099 2.9275C1.76208 3.42641 1.54067 4.05904 1.43559 4.84065C1.33348 5.60013 1.33349 6.57054 1.3335 7.79571V7.87094C1.33349 9.09611 1.33348 10.0665 1.43559 10.826C1.54067 11.6076 1.76208 12.2403 2.26099 12.7392C2.7599 13.2381 3.39253 13.4595 4.17415 13.5646C4.93362 13.6667 5.90403 13.6667 7.12919 13.6667H8.53777C9.76293 13.6667 10.7334 13.6667 11.4928 13.5646C12.2745 13.4595 12.9071 13.2381 13.406 12.7392C13.5423 12.6028 13.6581 12.4563 13.7566 12.299C14.0569 11.8194 14.0931 11.2315 14.0931 10.6657C14.061 10.6667 14.0271 10.6667 13.9923 10.6667L12.1434 10.6667C10.6292 10.6667 9.3335 9.50929 9.3335 8C9.3335 6.49071 10.6292 5.33334 12.1434 5.33334L13.9922 5.33334C14.0271 5.33332 14.061 5.33331 14.0931 5.33435Z" fill="#F59F00"/>
</svg>
