<svg width="24" height="24" viewBox="0 0 24 24" fill="none" xmlns="http://www.w3.org/2000/svg">
<path d="M12.375 13.125V18C12.375 18.2029 12.2029 18.375 12 18.375C11.7971 18.375 11.625 18.2029 11.625 18V13.125H12.375ZM18 11.625C18.2029 11.625 18.375 11.7971 18.375 12C18.375 12.2029 18.2029 12.375 18 12.375H13.125V11.625H18ZM6 11.625H10.875V12.375H6C5.79711 12.375 5.625 12.2029 5.625 12C5.625 11.7971 5.79711 11.625 6 11.625ZM12.375 11.625V12.375H11.625V11.625H12.375ZM12 5.625C12.2029 5.625 12.375 5.79711 12.375 6V10.875H11.625V6C11.625 5.79711 11.7971 5.625 12 5.625Z" fill="#121926" stroke="#121926" stroke-width="0.75"/>
</svg>
