<svg width="16" height="16" viewBox="0 0 16 16" fill="none" xmlns="http://www.w3.org/2000/svg">
<path fill-rule="evenodd" clip-rule="evenodd" d="M1.91904 2.58579C2.29411 2.21071 2.80282 2 3.33325 2H7.99992C8.53035 2 9.03906 2.21071 9.41413 2.58579C9.7892 2.96086 9.99992 3.46957 9.99992 4V5.33333C9.99992 5.70152 9.70144 6 9.33325 6C8.96506 6 8.66658 5.70152 8.66658 5.33333V4C8.66658 3.82319 8.59635 3.65362 8.47132 3.5286C8.3463 3.40357 8.17673 3.33333 7.99992 3.33333H3.33325C3.15644 3.33333 2.98687 3.40357 2.86185 3.5286C2.73682 3.65362 2.66658 3.82319 2.66658 4V12C2.66658 12.1768 2.73682 12.3464 2.86185 12.4714C2.98687 12.5964 3.15644 12.6667 3.33325 12.6667H7.99992C8.17673 12.6667 8.3463 12.5964 8.47132 12.4714C8.59635 12.3464 8.66658 12.1768 8.66658 12V10.6667C8.66658 10.2985 8.96506 10 9.33325 10C9.70144 10 9.99992 10.2985 9.99992 10.6667V12C9.99992 12.5304 9.7892 13.0391 9.41413 13.4142C9.03906 13.7893 8.53035 14 7.99992 14H3.33325C2.80282 14 2.29411 13.7893 1.91904 13.4142C1.54397 13.0391 1.33325 12.5304 1.33325 12V4C1.33325 3.46957 1.54397 2.96086 1.91904 2.58579ZM7.13799 5.5286C7.39834 5.78894 7.39834 6.21106 7.13799 6.4714L6.27606 7.33333H13.3332C13.7014 7.33333 13.9999 7.63181 13.9999 8C13.9999 8.36819 13.7014 8.66667 13.3332 8.66667H6.27606L7.13799 9.5286C7.39834 9.78895 7.39834 10.2111 7.13799 10.4714C6.87764 10.7318 6.45553 10.7318 6.19518 10.4714L4.19518 8.4714C3.93483 8.21106 3.93483 7.78895 4.19518 7.5286L6.19518 5.5286C6.45553 5.26825 6.87764 5.26825 7.13799 5.5286Z" fill="#F59F00"/>
</svg>
