<svg width="20" height="20" viewBox="0 0 20 20" fill="none" xmlns="http://www.w3.org/2000/svg">
<path d="M2.35611 5.53806C2.19294 5.15733 1.75203 4.98097 1.37131 5.14414C0.990586 5.3073 0.814223 5.74821 0.977389 6.12894L1.66675 5.8335L2.35611 5.53806ZM12.9894 11.1074L12.7147 10.4095L12.9894 11.1074ZM7.6394 11.5165C7.8653 11.1693 7.76698 10.7047 7.4198 10.4788C7.07261 10.2529 6.60803 10.3512 6.38212 10.6984L7.01076 11.1074L7.6394 11.5165ZM5.20478 12.5078C4.97887 12.855 5.07719 13.3196 5.42438 13.5455C5.77156 13.7714 6.23615 13.6731 6.46205 13.3259L5.83342 12.9168L5.20478 12.5078ZM19.0228 6.12894C19.1859 5.74821 19.0096 5.3073 18.6289 5.14414C18.2481 4.98097 17.8072 5.15733 17.6441 5.53806L18.3334 5.8335L19.0228 6.12894ZM15.8334 9.27419L15.3201 8.72735V8.72735L15.8334 9.27419ZM16.5531 11.0545C16.846 11.3474 17.3209 11.3474 17.6137 11.0545C17.9066 10.7616 17.9066 10.2868 17.6137 9.99386L17.0834 10.5242L16.5531 11.0545ZM9.25008 13.7502C9.25008 14.1644 9.58587 14.5002 10.0001 14.5002C10.4143 14.5002 10.7501 14.1644 10.7501 13.7502H10.0001H9.25008ZM13.5381 13.3259C13.764 13.6731 14.2286 13.7714 14.5758 13.5455C14.923 13.3196 15.0213 12.855 14.7954 12.5078L14.1667 12.9168L13.5381 13.3259ZM4.69708 9.80452C4.98997 9.51163 4.98997 9.03676 4.69708 8.74386C4.40419 8.45097 3.92931 8.45097 3.63642 8.74386L4.16675 9.27419L4.69708 9.80452ZM2.38642 9.99386C2.09352 10.2868 2.09352 10.7616 2.38642 11.0545C2.67931 11.3474 3.15418 11.3474 3.44708 11.0545L2.91675 10.5242L2.38642 9.99386ZM10.0001 11.6668V10.9168C7.35952 10.9168 5.46141 9.6031 4.19551 8.23982C3.56278 7.55843 3.09854 6.87467 2.79299 6.36134C2.64064 6.10539 2.52891 5.89378 2.45638 5.74874C2.42015 5.67627 2.39379 5.6206 2.37712 5.58451C2.36879 5.56647 2.36289 5.55334 2.35939 5.54548C2.35764 5.54155 2.3565 5.53893 2.35595 5.53768C2.35568 5.53706 2.35555 5.53677 2.35558 5.53683C2.35559 5.53686 2.35564 5.53698 2.35573 5.53718C2.35578 5.53728 2.35587 5.5375 2.35589 5.53755C2.35599 5.53779 2.35611 5.53806 1.66675 5.8335C0.977389 6.12894 0.977521 6.12924 0.977662 6.12957C0.977722 6.12971 0.977874 6.13006 0.977994 6.13034C0.978234 6.1309 0.978514 6.13155 0.978832 6.13229C0.97947 6.13376 0.980264 6.13559 0.981214 6.13777C0.983115 6.14212 0.985644 6.14787 0.988804 6.15498C0.995124 6.16919 1.00397 6.18882 1.01537 6.21351C1.03817 6.26287 1.07122 6.33252 1.11474 6.41956C1.20173 6.59352 1.33088 6.83765 1.50405 7.12857C1.84954 7.70899 2.37488 8.48357 3.09632 9.2605C4.53875 10.8139 6.80731 12.4168 10.0001 12.4168V11.6668ZM12.9894 11.1074L12.7147 10.4095C11.92 10.7223 11.0185 10.9168 10.0001 10.9168V11.6668V12.4168C11.215 12.4168 12.3024 12.1838 13.2641 11.8053L12.9894 11.1074ZM7.01076 11.1074L6.38212 10.6984L5.20478 12.5078L5.83342 12.9168L6.46205 13.3259L7.6394 11.5165L7.01076 11.1074ZM18.3334 5.8335C17.6441 5.53806 17.6441 5.5379 17.6442 5.53776C17.6442 5.53772 17.6443 5.53758 17.6443 5.5375C17.6444 5.53734 17.6444 5.53721 17.6445 5.53711C17.6446 5.53691 17.6446 5.53681 17.6446 5.53682C17.6446 5.53685 17.6444 5.53731 17.644 5.53819C17.6432 5.53996 17.6417 5.54344 17.6394 5.54855C17.6348 5.55877 17.6272 5.57555 17.6166 5.59838C17.5953 5.64407 17.5618 5.71389 17.5159 5.80393C17.424 5.98417 17.2827 6.24439 17.0902 6.55339C16.7038 7.17357 16.1181 7.97834 15.3201 8.72735L15.8334 9.27419L16.3467 9.82104C17.2642 8.95986 17.9286 8.04428 18.3633 7.34665C18.5813 6.99676 18.7434 6.69871 18.8522 6.48542C18.9066 6.37868 18.9478 6.29292 18.9761 6.23221C18.9903 6.20185 19.0012 6.17772 19.009 6.16035C19.0128 6.15166 19.0159 6.14465 19.0182 6.1394C19.0194 6.13677 19.0203 6.13458 19.0211 6.13283C19.0215 6.13196 19.0218 6.1312 19.0221 6.13055C19.0222 6.13022 19.0223 6.12993 19.0225 6.12966C19.0225 6.12952 19.0226 6.12934 19.0226 6.12928C19.0227 6.1291 19.0228 6.12894 18.3334 5.8335ZM15.8334 9.27419L15.3201 8.72735C14.6133 9.39081 13.7482 10.0027 12.7147 10.4095L12.9894 11.1074L13.2641 11.8053C14.5098 11.315 15.5322 10.5856 16.3467 9.82104L15.8334 9.27419ZM15.8334 9.27419L15.3031 9.80452L16.5531 11.0545L17.0834 10.5242L17.6137 9.99386L16.3637 8.74386L15.8334 9.27419ZM10.0001 11.6668H9.25008V13.7502H10.0001H10.7501V11.6668H10.0001ZM12.9894 11.1074L12.3608 11.5165L13.5381 13.3259L14.1667 12.9168L14.7954 12.5078L13.618 10.6984L12.9894 11.1074ZM4.16675 9.27419L3.63642 8.74386L2.38642 9.99386L2.91675 10.5242L3.44708 11.0545L4.69708 9.80452L4.16675 9.27419Z" fill="#868E96"/>
</svg>
